# xmcd
#
# Track frame offsets: 
#        150
#        21997
#        44210
#        69927
#        90182
#        110930
#        138315
#        157480
#        182020
#        199392
#
# Disc length: 2969 seconds
#
# Revision: 0
# Processed by: cddbd v1.5.2PL0 Copyright (c) Steve Scherf et al.
# Submitted via: ExactAudioCopy v1.0b3
#
DISCID=960b970a
DTITLE=Huong Lan, Thai Chau - Sao Em No Voi Lay Chong
DYEAR=1900
DGENRE=
TTITLE0=Thai Chau - Loi to tinh
TTITLE1=Huong Lan - Loi the cua loai hoa trang
TTITLE2=Thai Chau - Cho du co di noi dau
TTITLE3=Huong Lan - Quynh huong
TTITLE4=Thai Chau - Sao em no voi lay chong
TTITLE5=Huong Lan - Goi nguoi yeu dau
TTITLE6=Thai Chau - Ngau hung ly qua cau
TTITLE7=Huong Lan - Ngu di em
TTITLE8=Thai Chau - Ve day nghe em
TTITLE9=Huong Lan - Dong dong ho hen
EXTD=
EXTT0=
EXTT1=
EXTT2=
EXTT3=
EXTT4=
EXTT5=
EXTT6=
EXTT7=
EXTT8=
EXTT9=
PLAYORDER=
